<?xml version="1.0"?><!DOCTYPE svg  PUBLIC '-//W3C//DTD SVG 1.1 Basic//EN'  'http://www.w3.org/Graphics/SVG/1.1/DTD/svg11-basic.dtd'><svg baseProfile="basic" version="1.1" viewBox="0 0 380 380" xml:space="preserve" xmlns="http://www.w3.org/2000/svg" xmlns:xlink="http://www.w3.org/1999/xlink"><g id="Background"/><g id="Objects"><g><g><g><polygon fill="#41A67E" points="178.1,218.8 150.2,67.5 153.7,66.9 177.9,198.5 199.1,74.7 202.6,75.3     "/></g></g><g><g><g><path d="M228.5,132.4l-1.2-0.9c-1.4-1.4-1.9-1.8,27.3-49.6c14.1-23,28.5-46.2,28.7-46.4l3,1.9       c-18.2,29.2-44.1,71.3-53,87.1c22.4-17.4,101.9-80.4,102.8-81.1l2.2,2.8c-4.3,3.4-104.5,82.7-108.6,85.6L228.5,132.4z" fill="#41A67E"/></g></g><g><g><polygon fill="#41A67E" points="231.9,129 229.3,126.6 314.4,34.1 317,36.5      "/></g></g></g><g><g><rect fill="#41A67E" height="134.8" transform="matrix(1 9.164585e-003 -9.164585e-003 1 1.3156 -1.6232)" width="3.5" x="176" y="75.3"/></g></g><g><g><polygon fill="#41A67E" points="183.2,219.5 89.1,108.9 91.8,106.6 172.6,201.6 128,84.6 131.3,83.3     "/></g></g><g><g><rect fill="#41A67E" height="3.5" transform="matrix(0.5029 0.8643 -0.8643 0.5029 197.3651 -48.0639)" width="133.1" x="73.9" y="145.8"/></g></g><g><g><polygon fill="#41A67E" points="186.9,215.9 39.2,165.6 40.3,162.3 168.9,206 62.6,121.2 64.8,118.4     "/></g></g><g><g><polygon fill="#41A67E" points="170,209.2 56.3,148.2 57.9,145.1 171.6,206.1     "/></g></g><g><g><g><rect fill="#41A67E" height="3.5" transform="matrix(0.9884 0.1522 -0.1522 0.9884 31.745 -14.263)" width="132.9" x="42.6" y="198.5"/></g></g><g><g><rect fill="#41A67E" height="133.5" transform="matrix(0.3327 0.943 -0.943 0.3327 295.2151 51.8672)" width="3.5" x="109.2" y="167.8"/></g></g><g><g><polygon fill="#41A67E" points="131,342 127.6,340.8 171.9,219.5 92.3,315.4 89.6,313.1 182.2,201.5      "/></g></g><g><g><rect fill="#41A67E" height="138.1" transform="matrix(0.8662 0.4998 -0.4998 0.8662 157.253 -32.447)" width="3.5" x="137.4" y="208.3"/></g></g></g><g><g><g><polygon fill="#41A67E" points="33.7,240.5 33,237 164.9,210.6 42.9,191 43.5,187.5 184.9,210.2      "/></g></g><g><g><rect fill="#41A67E" height="134.2" transform="matrix(2.341517e-002 0.9997 -0.9997 2.341517e-002 318.2762 98.0264)" width="3.5" x="107.2" y="144.8"/></g></g><g><g><rect fill="#41A67E" height="144.3" transform="matrix(0.6327 0.7744 -0.7744 0.6327 243.0829 2.7674)" width="3.5" x="116.9" y="185.5"/></g></g><g><g><rect fill="#41A67E" height="128.5" transform="matrix(0.4875 0.8731 -0.8731 0.4875 272.6996 25.1996)" width="3.5" x="113.1" y="180.6"/></g></g><g><g><g><polygon fill="#41A67E" points="153.8,356.6 150.3,356 176.3,202.2 201.3,348.1 197.8,348.7 176.3,223.3       "/></g></g><g><g><rect fill="#41A67E" height="134.8" transform="matrix(1 9.155262e-003 -9.155262e-003 1 2.5587 -1.6048)" width="3.5" x="174.8" y="211.3"/></g></g><g><g><polygon fill="#41A67E" points="221.8,338.7 170.4,202.8 259.6,314.6 256.8,316.8 181.7,222.6 225.1,337.5       "/></g></g><g><g><rect fill="#41A67E" height="3.5" transform="matrix(0.4905 0.8714 -0.8714 0.4905 348.0385 -44.2909)" width="137.7" x="143.1" y="273.7"/></g></g><g><g><polygon fill="#41A67E" points="283.7,305 165.3,204.2 302.1,256.8 300.8,260.1 183.4,214.9 286,302.3       "/></g></g><g><g><rect fill="#41A67E" height="3.5" transform="matrix(0.864 0.5036 -0.5036 0.864 155.9124 -85.9884)" width="129" x="172.6" y="243.8"/></g></g></g></g><g><g><g><polygon fill="#41A67E" points="314.3,236.4 170.5,210.5 314,189.6 314.5,193.1 192.5,210.9 314.9,232.9      "/></g></g><g><g><rect fill="#41A67E" height="3.5" transform="matrix(0.9999 1.256100e-002 -1.256100e-002 0.9999 2.6674 -3.1426)" width="143" x="180" y="209"/></g></g><g><g><polygon fill="#41A67E" points="173.6,214 281.2,121.8 283.5,124.4 191.1,203.6 305.4,160.7 306.7,164      "/></g></g><g><g><rect fill="#41A67E" height="139.6" transform="matrix(0.5029 0.8643 -0.8643 0.5029 270.2524 -126.862)" width="3.5" x="243.7" y="101.7"/></g></g><g><g><rect fill="#41A67E" height="136.2" transform="matrix(0.9455 0.3257 -0.3257 0.9455 58.6073 -57.6227)" width="3.5" x="199.6" y="78.1"/></g></g></g></g></g></svg>